<svg width="186" height="63" viewBox="0 0 186 63" fill="none" xmlns="http://www.w3.org/2000/svg">
<rect x="31.2845" y="29.3276" width="10.8621" height="8.68965" rx="1.08621" fill="#F8F9FA"/>
<rect x="31.2845" y="11.9482" width="10.8621" height="8.68965" rx="1.08621" fill="#F8F9FA"/>
<rect x="9.5603" y="29.3276" width="15.2069" height="8.68965" rx="1.08621" fill="#F8F9FA"/>
<rect x="9.5603" y="11.9482" width="15.2069" height="8.68965" rx="1.08621" fill="#F8F9FA"/>
<g filter="url(#filter0_d_502_286)">
<rect x="13.9052" y="16.293" width="23.8965" height="17.3793" rx="2.17241" fill="#E9ECEF"/>
</g>
<path d="M23.0022 19.5518C19.2004 19.5518 23.0022 24.7791 19.2004 24.7791C23.0022 24.7791 19.2004 30.0065 23.0022 30.0065" stroke="url(#paint0_linear_502_286)" stroke-width="1.08621" stroke-linecap="round" stroke-linejoin="round"/>
<path d="M28.7047 19.5518C32.5064 19.5518 28.7047 24.7791 32.5064 24.7791C28.7047 24.7791 32.5064 30.0065 28.7047 30.0065" stroke="url(#paint1_linear_502_286)" stroke-width="1.08621" stroke-linecap="round" stroke-linejoin="round"/>
<path d="M48.9244 16.4417H57.9617C60.1631 16.4417 61.901 16.5923 63.1755 16.8935C64.4731 17.1948 65.4116 17.7277 65.9909 18.4924C66.5934 19.2339 66.8946 20.2767 66.8946 21.6207V25.896C66.8946 27.379 66.5702 28.5377 65.9214 29.3719C65.2957 30.2061 64.2877 30.797 62.8974 31.1446C61.5302 31.4921 59.6764 31.6659 57.336 31.6659H54.3468V39H48.9244V16.4417ZM57.7879 27.9468C59.2014 27.9468 60.1978 27.7846 60.7771 27.4601C61.3564 27.1126 61.6461 26.5332 61.6461 25.7222V22.1073C61.6461 21.3658 61.368 20.8792 60.8119 20.6475C60.2789 20.4157 59.2477 20.2999 57.7184 20.2999H54.3468V27.9468H57.7879ZM78.9195 39.3476C77.8767 39.3476 77.0194 39.3128 76.3474 39.2433C75.6754 39.1738 74.957 39.0348 74.1923 38.8262C73.3581 38.5945 72.6861 38.2701 72.1763 37.853C71.6665 37.4127 71.2378 36.7986 70.8903 36.0108C70.5427 35.2461 70.3689 34.3192 70.3689 33.2301V28.2596C70.3689 27.1473 70.5427 26.1741 70.8903 25.3399C71.2378 24.5057 71.6897 23.8568 72.2458 23.3934C72.7325 22.9994 73.3697 22.675 74.1576 22.4201C74.9686 22.1421 75.7565 21.9683 76.5211 21.8988C77.4017 21.8524 78.2011 21.8292 78.9195 21.8292C79.9854 21.8292 80.8312 21.864 81.4569 21.9335C82.1057 21.9799 82.8125 22.1189 83.5771 22.3506C84.4114 22.6055 85.0834 22.9531 85.5931 23.3934C86.1261 23.8337 86.578 24.4593 86.9487 25.2703C87.2963 26.1046 87.4701 27.101 87.4701 28.2596V33.2301C87.4701 34.2728 87.2963 35.1881 86.9487 35.976C86.6243 36.7639 86.1956 37.3779 85.6627 37.8182C85.1992 38.2121 84.562 38.5366 83.7509 38.7914C82.9631 39.0232 82.1868 39.1738 81.4221 39.2433C80.7269 39.3128 79.8927 39.3476 78.9195 39.3476ZM78.9195 36.1846C79.8696 36.1846 80.5879 36.115 81.0745 35.976C81.5611 35.8138 81.8971 35.5705 82.0825 35.2461C82.2911 34.9217 82.3954 34.4466 82.3954 33.821V27.4601C82.3954 26.5332 82.152 25.8844 81.6654 25.5137C81.1788 25.1429 80.2635 24.9575 78.9195 24.9575C77.5755 24.9575 76.6602 25.1429 76.1736 25.5137C75.6869 25.8844 75.4436 26.5332 75.4436 27.4601V33.821C75.4436 34.4466 75.5363 34.9217 75.7217 35.2461C75.9303 35.5705 76.2778 35.8138 76.7645 35.976C77.2511 36.115 77.9694 36.1846 78.9195 36.1846ZM91.7731 22.1768H96.6046V25.1313C96.6046 24.5983 96.8247 24.077 97.265 23.5672C97.7053 23.0574 98.2614 22.6403 98.9334 22.3159C99.6286 21.9914 100.312 21.8292 100.984 21.8292H102.792V26.035H101.054C99.617 26.035 98.5511 26.2552 97.8559 26.6954C97.1839 27.1357 96.8479 27.8657 96.8479 28.8852V39H91.7731V22.1768ZM114.347 39.3476C113.49 39.3476 112.772 39.3128 112.192 39.2433C111.613 39.1738 111.034 39.0348 110.455 38.8262C109.806 38.6177 109.273 38.328 108.856 37.9572C108.462 37.5865 108.137 37.0767 107.882 36.4279C107.604 35.7559 107.465 34.9796 107.465 34.099V25.3051H104.059V22.1768H107.465V17.3106H112.54V22.1768H117.163V25.3051H112.54V33.2301C112.54 34.0411 112.61 34.6552 112.749 35.0723C112.888 35.4662 113.154 35.7559 113.548 35.9412C113.942 36.1034 114.544 36.1846 115.355 36.1846C115.68 36.1846 116.282 36.1266 117.163 36.0108V39.1738C116.074 39.2897 115.135 39.3476 114.347 39.3476ZM128.502 39.3476C127.459 39.3476 126.602 39.3128 125.93 39.2433C125.258 39.1738 124.54 39.0348 123.775 38.8262C122.941 38.5945 122.269 38.2701 121.759 37.853C121.249 37.4127 120.82 36.7986 120.473 36.0108C120.125 35.2461 119.952 34.3192 119.952 33.2301V28.2596C119.952 27.1473 120.125 26.1741 120.473 25.3399C120.82 24.5057 121.272 23.8568 121.828 23.3934C122.315 22.9994 122.952 22.675 123.74 22.4201C124.551 22.1421 125.339 21.9683 126.104 21.8988C126.984 21.8524 127.784 21.8292 128.502 21.8292C129.568 21.8292 130.414 21.864 131.04 21.9335C131.688 21.9799 132.395 22.1189 133.16 22.3506C133.994 22.6055 134.666 22.9531 135.176 23.3934C135.709 23.8337 136.161 24.4593 136.531 25.2703C136.879 26.1046 137.053 27.101 137.053 28.2596V33.2301C137.053 34.2728 136.879 35.1881 136.531 35.976C136.207 36.7639 135.778 37.3779 135.245 37.8182C134.782 38.2121 134.145 38.5366 133.334 38.7914C132.546 39.0232 131.769 39.1738 131.005 39.2433C130.31 39.3128 129.475 39.3476 128.502 39.3476ZM128.502 36.1846C129.452 36.1846 130.171 36.115 130.657 35.976C131.144 35.8138 131.48 35.5705 131.665 35.2461C131.874 34.9217 131.978 34.4466 131.978 33.821V27.4601C131.978 26.5332 131.735 25.8844 131.248 25.5137C130.761 25.1429 129.846 24.9575 128.502 24.9575C127.158 24.9575 126.243 25.1429 125.756 25.5137C125.27 25.8844 125.026 26.5332 125.026 27.4601V33.821C125.026 34.4466 125.119 34.9217 125.304 35.2461C125.513 35.5705 125.86 35.8138 126.347 35.976C126.834 36.115 127.552 36.1846 128.502 36.1846ZM152.305 39.3476C151.007 39.3476 149.86 39.2897 148.864 39.1738C147.867 39.0579 146.882 38.861 145.909 38.5829C144.866 38.3048 144.009 37.9341 143.337 37.4706C142.665 36.984 142.12 36.3583 141.703 35.5937C141.286 34.7826 141.078 33.8557 141.078 32.813V23.4281C141.078 22.2927 141.309 21.2731 141.773 20.3694C142.236 19.4425 142.862 18.7126 143.65 18.1796C144.391 17.693 145.272 17.2759 146.291 16.9283C147.334 16.5807 148.354 16.349 149.35 16.2331C150.184 16.1404 151.192 16.0941 152.374 16.0941C155.572 16.0941 158.631 16.3374 161.551 16.824V20.9255C158.863 20.2767 155.804 19.9523 152.374 19.9523C148.458 19.9523 146.5 21.0877 146.5 23.3586V32.4306C146.5 33.5429 147.021 34.3308 148.064 34.7942C149.13 35.2577 150.729 35.4894 152.861 35.4894C153.996 35.4894 155.213 35.3156 156.511 34.968V29.7194H152.826V26.1741H161.69V37.8877C160.531 38.3048 159.048 38.6524 157.24 38.9305C155.456 39.2086 153.811 39.3476 152.305 39.3476ZM173.719 39.3476C171.564 39.3476 168.899 39.139 165.724 38.7219V34.5857C169.664 35.1881 172.352 35.4894 173.788 35.4894C176.801 35.4894 178.307 34.7131 178.307 33.1606V31.7007C178.307 30.9592 178.087 30.3914 177.646 29.9975C177.229 29.6036 176.465 29.4066 175.352 29.4066H172.711C167.752 29.4066 165.272 27.437 165.272 23.4977V21.8292C165.272 19.8596 166.095 18.4113 167.74 17.4844C169.386 16.5575 171.992 16.0941 175.561 16.0941C177.415 16.0941 179.767 16.2447 182.617 16.5459V20.5779C179.118 20.1608 176.708 19.9523 175.387 19.9523C173.557 19.9523 172.328 20.1029 171.703 20.4041C171.031 20.7286 170.695 21.2383 170.695 21.9335V23.5324C170.695 24.7142 171.691 25.3051 173.684 25.3051H176.395C178.967 25.3051 180.833 25.7801 181.991 26.7302C183.15 27.6803 183.729 29.1286 183.729 31.075V32.5697C183.729 35.2577 182.768 37.0767 180.844 38.0268C179.917 38.5134 178.886 38.8494 177.751 39.0348C176.638 39.2433 175.294 39.3476 173.719 39.3476Z" fill="#F8F9FA"/>
<path d="M10.1425 58.4482V46.1958H13.9138C15.8372 46.1958 17.3144 46.7172 18.3456 47.76C19.3883 48.7911 19.9097 50.3089 19.9097 52.3133C19.9097 54.3062 19.3883 55.8298 18.3456 56.8841C17.3144 57.9269 15.8372 58.4482 13.9138 58.4482H10.1425ZM10.8725 57.7704H13.8443C17.3665 57.7704 19.1276 55.9514 19.1276 52.3133C19.1276 48.6869 17.3665 46.8736 13.8443 46.8736H10.8725V57.7704ZM26.0378 58.5873C24.7865 58.5873 23.7959 58.2049 23.066 57.4402C22.3476 56.664 21.9884 55.6096 21.9884 54.2772C21.9884 53.3967 22.1506 52.632 22.4751 51.9831C22.8111 51.3227 23.2687 50.8129 23.848 50.4538C24.4389 50.083 25.1167 49.8976 25.8814 49.8976C26.9705 49.8976 27.8163 50.2568 28.4188 50.9751C29.0213 51.6819 29.3225 52.6667 29.3225 53.9296V54.3815H22.7357C22.7589 55.5053 23.0544 56.3743 23.6221 56.9884C24.1898 57.6024 24.9835 57.9095 26.0031 57.9095C26.5244 57.9095 27.0111 57.8284 27.4629 57.6662C27.9264 57.4924 28.384 57.2085 28.8359 56.8146L29.1835 57.4055C28.8243 57.7647 28.3608 58.0543 27.7931 58.2744C27.2254 58.483 26.6403 58.5873 26.0378 58.5873ZM25.864 50.558C24.9255 50.558 24.1898 50.8593 23.6568 51.4618C23.1355 52.0642 22.8342 52.8231 22.7531 53.7384H28.6447C28.61 52.7536 28.3608 51.9773 27.8974 51.4096C27.434 50.8419 26.7562 50.558 25.864 50.558ZM34.2658 58.5873C33.6633 58.5873 33.084 58.4946 32.5279 58.3092C31.9718 58.1122 31.5141 57.8342 31.1549 57.475L31.5025 56.8841C31.9196 57.2433 32.3657 57.504 32.8407 57.6662C33.3273 57.8284 33.8198 57.9095 34.318 57.9095C35.0711 57.9095 35.6446 57.7647 36.0385 57.475C36.444 57.1853 36.6468 56.7914 36.6468 56.2932C36.6468 55.8993 36.5136 55.5922 36.2471 55.3721C35.9922 55.1404 35.5751 54.955 34.9958 54.816L33.5533 54.4684C32.8233 54.2946 32.2846 54.0281 31.937 53.6689C31.601 53.3098 31.433 52.8463 31.433 52.2786C31.433 51.5602 31.7053 50.9867 32.2498 50.558C32.806 50.1178 33.5417 49.8976 34.457 49.8976C35.0363 49.8976 35.5693 49.9961 36.0559 50.1931C36.5541 50.39 36.9538 50.6681 37.2551 51.0273L36.9075 51.6182C36.2355 50.923 35.4129 50.5754 34.4396 50.5754C33.7329 50.5754 33.1825 50.7318 32.7886 51.0447C32.3947 51.3459 32.1977 51.7514 32.1977 52.2612C32.1977 52.6551 32.3193 52.9738 32.5627 53.2171C32.806 53.4604 33.1941 53.6458 33.7271 53.7732L35.1696 54.1208C35.9227 54.3062 36.4846 54.5669 36.8553 54.9029C37.2261 55.2389 37.4115 55.6907 37.4115 56.2584C37.4115 56.9652 37.1276 57.5329 36.5599 57.9616C35.9922 58.3787 35.2275 58.5873 34.2658 58.5873ZM43.3832 58.5873C42.1319 58.5873 41.1412 58.2049 40.4113 57.4402C39.693 56.664 39.3338 55.6096 39.3338 54.2772C39.3338 53.3967 39.496 52.632 39.8204 51.9831C40.1564 51.3227 40.6141 50.8129 41.1934 50.4538C41.7843 50.083 42.4621 49.8976 43.2268 49.8976C44.3159 49.8976 45.1617 50.2568 45.7641 50.9751C46.3666 51.6819 46.6679 52.6667 46.6679 53.9296V54.3815H40.0811C40.1043 55.5053 40.3997 56.3743 40.9675 56.9884C41.5352 57.6024 42.3288 57.9095 43.3484 57.9095C43.8698 57.9095 44.3564 57.8284 44.8083 57.6662C45.2717 57.4924 45.7294 57.2085 46.1812 56.8146L46.5288 57.4055C46.1697 57.7647 45.7062 58.0543 45.1385 58.2744C44.5708 58.483 43.9857 58.5873 43.3832 58.5873ZM43.2094 50.558C42.2709 50.558 41.5352 50.8593 41.0022 51.4618C40.4808 52.0642 40.1796 52.8231 40.0985 53.7384H45.9901C45.9553 52.7536 45.7062 51.9773 45.2428 51.4096C44.7793 50.8419 44.1015 50.558 43.2094 50.558ZM48.9869 58.4482V50.0367H49.6995V51.6008C49.9775 51.0331 50.3773 50.6102 50.8986 50.3321C51.4316 50.0424 52.0225 49.8976 52.6713 49.8976C54.6757 49.8976 55.678 50.9636 55.678 53.0954V58.4482H54.948V53.1649C54.948 52.2728 54.7684 51.6182 54.4093 51.2011C54.0501 50.784 53.4708 50.5754 52.6713 50.5754C51.7792 50.5754 51.0609 50.8535 50.5163 51.4096C49.9833 51.9542 49.7169 52.6899 49.7169 53.6168V58.4482H48.9869ZM60.9934 58.4482L57.4133 50.0367H58.2475L61.4105 57.6836L64.591 50.0367H65.4078L61.8276 58.4482H60.9934ZM70.3787 58.5873C69.614 58.5873 68.9478 58.4077 68.3801 58.0485C67.8239 57.6893 67.3894 57.1853 67.0766 56.5365C66.7754 55.8877 66.6247 55.123 66.6247 54.2424C66.6247 53.3619 66.7754 52.5972 67.0766 51.9484C67.3894 51.2996 67.8239 50.7956 68.3801 50.4364C68.9478 50.0772 69.614 49.8976 70.3787 49.8976C71.1434 49.8976 71.8038 50.0772 72.3599 50.4364C72.9276 50.7956 73.3621 51.2996 73.6634 51.9484C73.9762 52.5972 74.1326 53.3619 74.1326 54.2424C74.1326 55.123 73.9762 55.8877 73.6634 56.5365C73.3621 57.1853 72.9276 57.6893 72.3599 58.0485C71.8038 58.4077 71.1434 58.5873 70.3787 58.5873ZM70.3787 57.9095C71.3056 57.9095 72.0355 57.5909 72.5685 56.9536C73.113 56.3048 73.3853 55.4011 73.3853 54.2424C73.3853 53.0838 73.113 52.1859 72.5685 51.5487C72.0355 50.8998 71.3056 50.5754 70.3787 50.5754C69.4634 50.5754 68.7334 50.8998 68.1889 51.5487C67.6443 52.1859 67.3721 53.0838 67.3721 54.2424C67.3721 55.4011 67.6443 56.3048 68.1889 56.9536C68.7334 57.5909 69.4634 57.9095 70.3787 57.9095ZM78.8265 58.5873C78.0966 58.5873 77.5289 58.3556 77.1233 57.8921C76.7294 57.4171 76.5324 56.7567 76.5324 55.9109V46.1958H77.2624V55.7892C77.2624 57.2027 77.8069 57.9095 78.896 57.9095C79.1857 57.9095 79.458 57.8747 79.7129 57.8052L79.6607 58.483C79.3479 58.5525 79.0698 58.5873 78.8265 58.5873ZM83.6341 58.4482L80.0539 50.0367H80.8881L84.0512 57.6836L87.2316 50.0367H88.0484L84.4683 58.4482H83.6341ZM89.7152 47.6904V46.5956H90.8275V47.6904H89.7152ZM89.9064 58.4482V50.0367H90.6363V58.4482H89.9064ZM93.624 58.4482V50.0367H94.3366V51.566C94.5915 51.0215 94.9449 50.6102 95.3967 50.3321C95.8602 50.0424 96.3989 49.8976 97.013 49.8976C98.3686 49.8976 99.2202 50.4885 99.5678 51.6703C99.8111 51.1258 100.182 50.6971 100.68 50.3842C101.178 50.0598 101.763 49.8976 102.435 49.8976C104.278 49.8976 105.199 50.9636 105.199 53.0954V58.4482H104.469V53.1649C104.469 52.2728 104.307 51.6182 103.982 51.2011C103.669 50.784 103.142 50.5754 102.401 50.5754C101.601 50.5754 100.964 50.8535 100.489 51.4096C100.014 51.9542 99.7763 52.6899 99.7763 53.6168V58.4482H99.0464V53.1649C99.0464 52.2728 98.8842 51.6182 98.5598 51.2011C98.2469 50.784 97.7198 50.5754 96.9783 50.5754C96.1788 50.5754 95.5416 50.8535 95.0665 51.4096C94.5915 51.9542 94.354 52.6899 94.354 53.6168V58.4482H93.624ZM111.644 58.5873C110.393 58.5873 109.403 58.2049 108.673 57.4402C107.954 56.664 107.595 55.6096 107.595 54.2772C107.595 53.3967 107.757 52.632 108.082 51.9831C108.418 51.3227 108.875 50.8129 109.455 50.4538C110.046 50.083 110.723 49.8976 111.488 49.8976C112.577 49.8976 113.423 50.2568 114.025 50.9751C114.628 51.6819 114.929 52.6667 114.929 53.9296V54.3815H108.342C108.366 55.5053 108.661 56.3743 109.229 56.9884C109.796 57.6024 110.59 57.9095 111.61 57.9095C112.131 57.9095 112.618 57.8284 113.07 57.6662C113.533 57.4924 113.991 57.2085 114.443 56.8146L114.79 57.4055C114.431 57.7647 113.968 58.0543 113.4 58.2744C112.832 58.483 112.247 58.5873 111.644 58.5873ZM111.471 50.558C110.532 50.558 109.796 50.8593 109.264 51.4618C108.742 52.0642 108.441 52.8231 108.36 53.7384H114.251C114.217 52.7536 113.968 51.9773 113.504 51.4096C113.041 50.8419 112.363 50.558 111.471 50.558ZM117.248 58.4482V50.0367H117.961V51.6008C118.239 51.0331 118.639 50.6102 119.16 50.3321C119.693 50.0424 120.284 49.8976 120.933 49.8976C122.937 49.8976 123.939 50.9636 123.939 53.0954V58.4482H123.209V53.1649C123.209 52.2728 123.03 51.6182 122.671 51.2011C122.311 50.784 121.732 50.5754 120.933 50.5754C120.041 50.5754 119.322 50.8535 118.778 51.4096C118.245 51.9542 117.978 52.6899 117.978 53.6168V58.4482H117.248ZM129.809 58.5873C128.928 58.5873 128.268 58.3382 127.828 57.84C127.387 57.3418 127.167 56.6408 127.167 55.7371V50.6623H125.481V50.0367H127.167V47.4124H127.897V50.0367H130.66V50.6623H127.897V55.5807C127.897 56.3338 128.048 56.9131 128.349 57.3186C128.65 57.7125 129.154 57.9095 129.861 57.9095C130.07 57.9095 130.267 57.8863 130.452 57.84C130.649 57.782 130.811 57.7299 130.939 57.6836L131.112 58.2918C131.008 58.3613 130.823 58.4251 130.556 58.483C130.29 58.5525 130.041 58.5873 129.809 58.5873ZM135.534 58.5873C134.769 58.5873 134.103 58.4077 133.535 58.0485C132.979 57.6893 132.545 57.1853 132.232 56.5365C131.931 55.8877 131.78 55.123 131.78 54.2424C131.78 53.3619 131.931 52.5972 132.232 51.9484C132.545 51.2996 132.979 50.7956 133.535 50.4364C134.103 50.0772 134.769 49.8976 135.534 49.8976C136.299 49.8976 136.959 50.0772 137.515 50.4364C138.083 50.7956 138.518 51.2996 138.819 51.9484C139.132 52.5972 139.288 53.3619 139.288 54.2424C139.288 55.123 139.132 55.8877 138.819 56.5365C138.518 57.1853 138.083 57.6893 137.515 58.0485C136.959 58.4077 136.299 58.5873 135.534 58.5873ZM135.534 57.9095C136.461 57.9095 137.191 57.5909 137.724 56.9536C138.268 56.3048 138.541 55.4011 138.541 54.2424C138.541 53.0838 138.268 52.1859 137.724 51.5487C137.191 50.8998 136.461 50.5754 135.534 50.5754C134.619 50.5754 133.889 50.8998 133.344 51.5487C132.8 52.1859 132.527 53.0838 132.527 54.2424C132.527 55.4011 132.8 56.3048 133.344 56.9536C133.889 57.5909 134.619 57.9095 135.534 57.9095ZM149.389 58.4482L145.148 46.1958H145.913L149.754 57.3533L153.612 46.1958H154.29L158.165 57.4055L162.041 46.1958H162.788L158.547 58.4482H157.8L153.959 47.2907L150.101 58.4482H149.389ZM165.114 58.4482V46.1958H172.483V46.8736H165.844V51.8962H172.135V52.574H165.844V57.7704H172.483V58.4482H165.114ZM175.025 58.4482V46.1958H179.509C180.749 46.1958 181.711 46.4739 182.394 47.03C183.078 47.5862 183.42 48.3798 183.42 49.411C183.42 50.0946 183.234 50.6739 182.863 51.1489C182.504 51.624 182.012 51.9716 181.386 52.1917C182.105 52.3539 182.666 52.6899 183.072 53.1997C183.489 53.7095 183.698 54.3525 183.698 55.1288C183.698 56.2179 183.356 57.0463 182.672 57.614C181.989 58.1702 181.01 58.4482 179.735 58.4482H175.025ZM175.755 51.9136H179.457C180.5 51.9136 181.293 51.6993 181.838 51.2706C182.383 50.8303 182.655 50.2047 182.655 49.3936C182.655 48.571 182.383 47.9453 181.838 47.5167C181.293 47.088 180.5 46.8736 179.457 46.8736H175.755V51.9136ZM175.755 57.7704H179.718C180.784 57.7704 181.583 57.5619 182.116 57.1448C182.661 56.7161 182.933 56.0615 182.933 55.1809C182.933 54.2888 182.661 53.6342 182.116 53.2171C181.583 52.8 180.784 52.5914 179.718 52.5914H175.755V57.7704Z" fill="#F8F9FA"/>
<defs>
<filter id="filter0_d_502_286" x="0.87067" y="3.25849" width="49.9655" height="43.4484" filterUnits="userSpaceOnUse" color-interpolation-filters="sRGB">
<feFlood flood-opacity="0" result="BackgroundImageFix"/>
<feColorMatrix in="SourceAlpha" type="matrix" values="0 0 0 0 0 0 0 0 0 0 0 0 0 0 0 0 0 0 127 0" result="hardAlpha"/>
<feOffset/>
<feGaussianBlur stdDeviation="6.51724"/>
<feComposite in2="hardAlpha" operator="out"/>
<feColorMatrix type="matrix" values="0 0 0 0 0.372549 0 0 0 0 0.239216 0 0 0 0 0.768627 0 0 0 0.5 0"/>
<feBlend mode="normal" in2="BackgroundImageFix" result="effect1_dropShadow_502_286"/>
<feBlend mode="normal" in="SourceGraphic" in2="effect1_dropShadow_502_286" result="shape"/>
</filter>
<linearGradient id="paint0_linear_502_286" x1="19.2004" y1="19.5518" x2="25.0238" y2="20.9783" gradientUnits="userSpaceOnUse">
<stop stop-color="#5F3DC4"/>
<stop offset="1" stop-color="#5C7CFA"/>
</linearGradient>
<linearGradient id="paint1_linear_502_286" x1="28.7047" y1="19.5518" x2="34.528" y2="20.9783" gradientUnits="userSpaceOnUse">
<stop stop-color="#5F3DC4"/>
<stop offset="1" stop-color="#5C7CFA"/>
</linearGradient>
</defs>
</svg>
