<svg width="696" height="452" viewBox="0 0 696 452" fill="none" xmlns="http://www.w3.org/2000/svg">
<rect width="146.025" height="116.992" rx="16.1731" transform="matrix(0.858898 0.512148 -0.858898 0.512148 372.116 298.487)" fill="url(#paint0_linear_111_1155)"/>
<rect width="146.025" height="116.992" rx="16.1731" transform="matrix(0.858898 0.512148 -0.858898 0.512148 372.116 300.75)" fill="url(#paint1_linear_111_1155)"/>
<rect width="146.025" height="116.992" rx="16.1731" transform="matrix(0.858898 0.512148 -0.858898 0.512148 372.116 303.012)" fill="url(#paint2_linear_111_1155)"/>
<rect width="146.025" height="116.992" rx="16.1731" transform="matrix(0.858898 0.512148 -0.858898 0.512148 372.116 305.275)" fill="url(#paint3_linear_111_1155)"/>
<rect width="146.025" height="116.992" rx="16.1731" transform="matrix(0.858898 0.512148 -0.858898 0.512148 372.116 307.537)" fill="url(#paint4_linear_111_1155)"/>
<rect width="146.025" height="116.992" rx="16.1731" transform="matrix(0.858898 0.512148 -0.858898 0.512148 372.116 309.8)" fill="url(#paint5_linear_111_1155)"/>
<rect width="146.025" height="116.992" rx="16.1731" transform="matrix(0.858898 0.512148 -0.858898 0.512148 372.116 312.063)" fill="url(#paint6_linear_111_1155)"/>
<rect width="146.025" height="116.992" rx="16.1731" transform="matrix(0.858898 0.512148 -0.858898 0.512148 372.116 314.325)" fill="url(#paint7_linear_111_1155)"/>
<rect width="146.025" height="116.992" rx="16.1731" transform="matrix(0.858898 0.512148 -0.858898 0.512148 372.116 316.588)" fill="url(#paint8_linear_111_1155)"/>
<rect width="146.025" height="116.992" rx="16.1731" transform="matrix(0.858898 0.512148 -0.858898 0.512148 372.116 296.224)" fill="url(#paint9_linear_111_1155)"/>
<rect width="146.025" height="116.992" rx="16.1731" transform="matrix(0.858898 0.512148 -0.858898 0.512148 570.363 177.437)" fill="url(#paint10_linear_111_1155)"/>
<rect width="146.025" height="116.992" rx="16.1731" transform="matrix(0.858898 0.512148 -0.858898 0.512148 570.363 179.7)" fill="url(#paint11_linear_111_1155)"/>
<rect width="146.025" height="116.992" rx="16.1731" transform="matrix(0.858898 0.512148 -0.858898 0.512148 570.363 181.962)" fill="url(#paint12_linear_111_1155)"/>
<rect width="146.025" height="116.992" rx="16.1731" transform="matrix(0.858898 0.512148 -0.858898 0.512148 570.363 184.225)" fill="url(#paint13_linear_111_1155)"/>
<rect width="146.025" height="116.992" rx="16.1731" transform="matrix(0.858898 0.512148 -0.858898 0.512148 570.363 186.488)" fill="url(#paint14_linear_111_1155)"/>
<rect width="146.025" height="116.992" rx="16.1731" transform="matrix(0.858898 0.512148 -0.858898 0.512148 570.363 188.75)" fill="url(#paint15_linear_111_1155)"/>
<rect width="146.025" height="116.992" rx="16.1731" transform="matrix(0.858898 0.512148 -0.858898 0.512148 570.363 191.013)" fill="url(#paint16_linear_111_1155)"/>
<rect width="146.025" height="116.992" rx="16.1731" transform="matrix(0.858898 0.512148 -0.858898 0.512148 570.363 193.275)" fill="url(#paint17_linear_111_1155)"/>
<rect width="146.025" height="116.992" rx="16.1731" transform="matrix(0.858898 0.512148 -0.858898 0.512148 570.363 195.538)" fill="url(#paint18_linear_111_1155)"/>
<rect width="146.025" height="116.992" rx="16.1731" transform="matrix(0.858898 0.512148 -0.858898 0.512148 570.363 175.174)" fill="url(#paint19_linear_111_1155)"/>
<rect width="204.435" height="116.992" rx="16.1731" transform="matrix(0.858898 0.512148 -0.858898 0.512148 100.484 131.054)" fill="url(#paint20_linear_111_1155)"/>
<rect width="204.435" height="116.992" rx="16.1731" transform="matrix(0.858898 0.512148 -0.858898 0.512148 100.484 134.447)" fill="url(#paint21_linear_111_1155)"/>
<rect width="204.435" height="116.992" rx="16.1731" transform="matrix(0.858898 0.512148 -0.858898 0.512148 100.484 137.841)" fill="url(#paint22_linear_111_1155)"/>
<rect width="204.435" height="116.992" rx="16.1731" transform="matrix(0.858898 0.512148 -0.858898 0.512148 100.484 141.235)" fill="url(#paint23_linear_111_1155)"/>
<rect width="204.435" height="116.992" rx="16.1731" transform="matrix(0.858898 0.512148 -0.858898 0.512148 100.484 144.629)" fill="url(#paint24_linear_111_1155)"/>
<rect width="204.435" height="116.992" rx="16.1731" transform="matrix(0.858898 0.512148 -0.858898 0.512148 100.484 148.023)" fill="url(#paint25_linear_111_1155)"/>
<rect width="204.435" height="116.992" rx="16.1731" transform="matrix(0.858898 0.512148 -0.858898 0.512148 100.484 128.791)" fill="url(#paint26_linear_111_1155)"/>
<rect width="204.435" height="116.992" rx="16.1731" transform="matrix(0.858898 0.512148 -0.858898 0.512148 294.35 3.21588)" fill="url(#paint27_linear_111_1155)"/>
<rect width="204.435" height="116.992" rx="16.1731" transform="matrix(0.858898 0.512148 -0.858898 0.512148 294.35 6.6098)" fill="url(#paint28_linear_111_1155)"/>
<rect width="204.435" height="116.992" rx="16.1731" transform="matrix(0.858898 0.512148 -0.858898 0.512148 294.35 10.0037)" fill="url(#paint29_linear_111_1155)"/>
<rect width="204.435" height="116.992" rx="16.1731" transform="matrix(0.858898 0.512148 -0.858898 0.512148 294.35 13.3976)" fill="url(#paint30_linear_111_1155)"/>
<rect width="204.435" height="116.992" rx="16.1731" transform="matrix(0.858898 0.512148 -0.858898 0.512148 294.35 16.7915)" fill="url(#paint31_linear_111_1155)"/>
<rect width="204.435" height="116.992" rx="16.1731" transform="matrix(0.858898 0.512148 -0.858898 0.512148 294.35 20.1855)" fill="url(#paint32_linear_111_1155)"/>
<rect width="204.435" height="116.992" rx="16.1731" transform="matrix(0.858898 0.512148 -0.858898 0.512148 294.35 0.953247)" fill="url(#paint33_linear_111_1155)"/>
<g filter="url(#filter0_d_111_1155)">
<rect width="321.254" height="233.984" rx="32.3462" transform="matrix(0.858898 0.512148 -0.858898 0.512148 298.449 48.4681)" fill="url(#paint34_linear_111_1155)"/>
<path d="M357.843 125.58C313.946 99.4052 297.395 161.624 253.498 135.449C297.395 161.624 193.051 171.493 236.948 197.668" stroke="#F3F0FF" stroke-width="16.1731" stroke-linecap="round" stroke-linejoin="round"/>
<path d="M423.689 164.843C467.586 191.018 363.241 200.887 407.138 227.062C363.241 200.887 346.691 263.106 302.794 236.931" stroke="#F3F0FF" stroke-width="16.1731" stroke-linecap="round" stroke-linejoin="round"/>
</g>
<defs>
<filter id="filter0_d_111_1155" x="83.7551" y="58.1723" width="504.345" height="351.956" filterUnits="userSpaceOnUse" color-interpolation-filters="sRGB">
<feFlood flood-opacity="0" result="BackgroundImageFix"/>
<feColorMatrix in="SourceAlpha" type="matrix" values="0 0 0 0 0 0 0 0 0 0 0 0 0 0 0 0 0 0 127 0" result="hardAlpha"/>
<feOffset dy="57"/>
<feGaussianBlur stdDeviation="15"/>
<feComposite in2="hardAlpha" operator="out"/>
<feColorMatrix type="matrix" values="0 0 0 0 0.129412 0 0 0 0 0.145098 0 0 0 0 0.160784 0 0 0 0.5 0"/>
<feBlend mode="normal" in2="BackgroundImageFix" result="effect1_dropShadow_111_1155"/>
<feBlend mode="normal" in="SourceGraphic" in2="effect1_dropShadow_111_1155" result="shape"/>
</filter>
<linearGradient id="paint0_linear_111_1155" x1="0" y1="0" x2="138.893" y2="116.79" gradientUnits="userSpaceOnUse">
<stop stop-color="#5F3DC4"/>
<stop offset="1" stop-color="#5C7CFA"/>
</linearGradient>
<linearGradient id="paint1_linear_111_1155" x1="0" y1="0" x2="138.893" y2="116.79" gradientUnits="userSpaceOnUse">
<stop stop-color="#5F3DC4"/>
<stop offset="1" stop-color="#5C7CFA"/>
</linearGradient>
<linearGradient id="paint2_linear_111_1155" x1="0" y1="0" x2="138.893" y2="116.79" gradientUnits="userSpaceOnUse">
<stop stop-color="#5F3DC4"/>
<stop offset="1" stop-color="#5C7CFA"/>
</linearGradient>
<linearGradient id="paint3_linear_111_1155" x1="0" y1="0" x2="138.893" y2="116.79" gradientUnits="userSpaceOnUse">
<stop stop-color="#5F3DC4"/>
<stop offset="1" stop-color="#5C7CFA"/>
</linearGradient>
<linearGradient id="paint4_linear_111_1155" x1="0" y1="0" x2="138.893" y2="116.79" gradientUnits="userSpaceOnUse">
<stop stop-color="#5F3DC4"/>
<stop offset="1" stop-color="#5C7CFA"/>
</linearGradient>
<linearGradient id="paint5_linear_111_1155" x1="0" y1="0" x2="138.893" y2="116.79" gradientUnits="userSpaceOnUse">
<stop stop-color="#5F3DC4"/>
<stop offset="1" stop-color="#5C7CFA"/>
</linearGradient>
<linearGradient id="paint6_linear_111_1155" x1="0" y1="0" x2="138.893" y2="116.79" gradientUnits="userSpaceOnUse">
<stop stop-color="#5F3DC4"/>
<stop offset="1" stop-color="#5C7CFA"/>
</linearGradient>
<linearGradient id="paint7_linear_111_1155" x1="0" y1="0" x2="138.893" y2="116.79" gradientUnits="userSpaceOnUse">
<stop stop-color="#5F3DC4"/>
<stop offset="1" stop-color="#5C7CFA"/>
</linearGradient>
<linearGradient id="paint8_linear_111_1155" x1="0" y1="0" x2="138.893" y2="116.79" gradientUnits="userSpaceOnUse">
<stop stop-color="#5F3DC4"/>
<stop offset="1" stop-color="#5C7CFA"/>
</linearGradient>
<linearGradient id="paint9_linear_111_1155" x1="0" y1="0" x2="155.491" y2="102.653" gradientUnits="userSpaceOnUse">
<stop stop-color="#845EF7"/>
<stop offset="1" stop-color="#364FC7"/>
</linearGradient>
<linearGradient id="paint10_linear_111_1155" x1="0" y1="0" x2="138.893" y2="116.79" gradientUnits="userSpaceOnUse">
<stop stop-color="#5F3DC4"/>
<stop offset="1" stop-color="#5C7CFA"/>
</linearGradient>
<linearGradient id="paint11_linear_111_1155" x1="0" y1="0" x2="138.893" y2="116.79" gradientUnits="userSpaceOnUse">
<stop stop-color="#5F3DC4"/>
<stop offset="1" stop-color="#5C7CFA"/>
</linearGradient>
<linearGradient id="paint12_linear_111_1155" x1="0" y1="0" x2="138.893" y2="116.79" gradientUnits="userSpaceOnUse">
<stop stop-color="#5F3DC4"/>
<stop offset="1" stop-color="#5C7CFA"/>
</linearGradient>
<linearGradient id="paint13_linear_111_1155" x1="0" y1="0" x2="138.893" y2="116.79" gradientUnits="userSpaceOnUse">
<stop stop-color="#5F3DC4"/>
<stop offset="1" stop-color="#5C7CFA"/>
</linearGradient>
<linearGradient id="paint14_linear_111_1155" x1="0" y1="0" x2="138.893" y2="116.79" gradientUnits="userSpaceOnUse">
<stop stop-color="#5F3DC4"/>
<stop offset="1" stop-color="#5C7CFA"/>
</linearGradient>
<linearGradient id="paint15_linear_111_1155" x1="0" y1="0" x2="138.893" y2="116.79" gradientUnits="userSpaceOnUse">
<stop stop-color="#5F3DC4"/>
<stop offset="1" stop-color="#5C7CFA"/>
</linearGradient>
<linearGradient id="paint16_linear_111_1155" x1="0" y1="0" x2="138.893" y2="116.79" gradientUnits="userSpaceOnUse">
<stop stop-color="#5F3DC4"/>
<stop offset="1" stop-color="#5C7CFA"/>
</linearGradient>
<linearGradient id="paint17_linear_111_1155" x1="0" y1="0" x2="138.893" y2="116.79" gradientUnits="userSpaceOnUse">
<stop stop-color="#5F3DC4"/>
<stop offset="1" stop-color="#5C7CFA"/>
</linearGradient>
<linearGradient id="paint18_linear_111_1155" x1="0" y1="0" x2="138.893" y2="116.79" gradientUnits="userSpaceOnUse">
<stop stop-color="#5F3DC4"/>
<stop offset="1" stop-color="#5C7CFA"/>
</linearGradient>
<linearGradient id="paint19_linear_111_1155" x1="0" y1="0" x2="155.491" y2="102.653" gradientUnits="userSpaceOnUse">
<stop stop-color="#845EF7"/>
<stop offset="1" stop-color="#364FC7"/>
</linearGradient>
<linearGradient id="paint20_linear_111_1155" x1="0" y1="0" x2="139.129" y2="163.784" gradientUnits="userSpaceOnUse">
<stop stop-color="#5F3DC4"/>
<stop offset="1" stop-color="#5C7CFA"/>
</linearGradient>
<linearGradient id="paint21_linear_111_1155" x1="0" y1="0" x2="139.129" y2="163.784" gradientUnits="userSpaceOnUse">
<stop stop-color="#5F3DC4"/>
<stop offset="1" stop-color="#5C7CFA"/>
</linearGradient>
<linearGradient id="paint22_linear_111_1155" x1="0" y1="0" x2="139.129" y2="163.784" gradientUnits="userSpaceOnUse">
<stop stop-color="#5F3DC4"/>
<stop offset="1" stop-color="#5C7CFA"/>
</linearGradient>
<linearGradient id="paint23_linear_111_1155" x1="0" y1="0" x2="139.129" y2="163.784" gradientUnits="userSpaceOnUse">
<stop stop-color="#5F3DC4"/>
<stop offset="1" stop-color="#5C7CFA"/>
</linearGradient>
<linearGradient id="paint24_linear_111_1155" x1="0" y1="0" x2="139.129" y2="163.784" gradientUnits="userSpaceOnUse">
<stop stop-color="#5F3DC4"/>
<stop offset="1" stop-color="#5C7CFA"/>
</linearGradient>
<linearGradient id="paint25_linear_111_1155" x1="0" y1="0" x2="139.129" y2="163.784" gradientUnits="userSpaceOnUse">
<stop stop-color="#5F3DC4"/>
<stop offset="1" stop-color="#5C7CFA"/>
</linearGradient>
<linearGradient id="paint26_linear_111_1155" x1="0" y1="0" x2="168.567" y2="155.799" gradientUnits="userSpaceOnUse">
<stop stop-color="#845EF7"/>
<stop offset="1" stop-color="#364FC7"/>
</linearGradient>
<linearGradient id="paint27_linear_111_1155" x1="0" y1="0" x2="139.129" y2="163.784" gradientUnits="userSpaceOnUse">
<stop stop-color="#5F3DC4"/>
<stop offset="1" stop-color="#5C7CFA"/>
</linearGradient>
<linearGradient id="paint28_linear_111_1155" x1="0" y1="0" x2="139.129" y2="163.784" gradientUnits="userSpaceOnUse">
<stop stop-color="#5F3DC4"/>
<stop offset="1" stop-color="#5C7CFA"/>
</linearGradient>
<linearGradient id="paint29_linear_111_1155" x1="0" y1="0" x2="139.129" y2="163.784" gradientUnits="userSpaceOnUse">
<stop stop-color="#5F3DC4"/>
<stop offset="1" stop-color="#5C7CFA"/>
</linearGradient>
<linearGradient id="paint30_linear_111_1155" x1="0" y1="0" x2="139.129" y2="163.784" gradientUnits="userSpaceOnUse">
<stop stop-color="#5F3DC4"/>
<stop offset="1" stop-color="#5C7CFA"/>
</linearGradient>
<linearGradient id="paint31_linear_111_1155" x1="0" y1="0" x2="139.129" y2="163.784" gradientUnits="userSpaceOnUse">
<stop stop-color="#5F3DC4"/>
<stop offset="1" stop-color="#5C7CFA"/>
</linearGradient>
<linearGradient id="paint32_linear_111_1155" x1="0" y1="0" x2="139.129" y2="163.784" gradientUnits="userSpaceOnUse">
<stop stop-color="#5F3DC4"/>
<stop offset="1" stop-color="#5C7CFA"/>
</linearGradient>
<linearGradient id="paint33_linear_111_1155" x1="0" y1="0" x2="168.567" y2="155.799" gradientUnits="userSpaceOnUse">
<stop stop-color="#845EF7"/>
<stop offset="1" stop-color="#364FC7"/>
</linearGradient>
<linearGradient id="paint34_linear_111_1155" x1="0" y1="0" x2="321.582" y2="233.533" gradientUnits="userSpaceOnUse">
<stop stop-color="#845EF7"/>
<stop offset="1" stop-color="#364FC7"/>
</linearGradient>
</defs>
</svg>
