<svg width="168" height="168" viewBox="0 0 168 168" fill="none" xmlns="http://www.w3.org/2000/svg">
<path fill-rule="evenodd" clip-rule="evenodd" d="M8.35034 5.65839C8.48715 5.66507 8.62323 5.68252 8.75731 5.71057C23.1574 5.77839 36.4253 8.75754 48.4671 13.7924C48.5378 13.8155 48.6074 13.8416 48.6758 13.8706C48.7802 13.9228 48.9054 13.9489 49.0202 13.9958C49.2436 14.0915 49.4526 14.218 49.641 14.3715C50.6271 14.8411 51.7124 15.3993 52.8706 16.0306C52.9398 16.059 53.0077 16.0903 53.0741 16.1245C53.1993 16.1872 53.3141 16.2654 53.4393 16.328C53.9454 16.6046 54.2324 16.7506 54.7124 17.0219C71.6951 25.9594 86.0169 38.549 97.5631 52.6778C99.7517 51.7286 102.06 51.0843 104.424 50.763V50.7683C113.221 49.6882 122.795 52.8709 131.69 59.0953C143.555 67.4014 154.537 81.1806 161.967 98.5755C162.192 99.1066 162.236 99.6975 162.089 100.256C161.943 100.814 161.616 101.308 161.159 101.66C160.702 102.013 160.142 102.204 159.565 102.204C158.988 102.203 158.427 102.012 157.97 101.659C147.207 93.3111 138.833 88.8085 132.979 87.7494C130.047 87.2276 127.814 87.4937 125.946 88.3807C124.334 89.1476 122.92 90.4572 121.626 92.4085C121.96 93.1911 122.372 93.9737 122.695 94.7564C122.891 95.2332 122.941 95.7573 122.838 96.2624C122.736 96.7676 122.487 97.2311 122.122 97.5947L116.518 103.198C121.386 110.534 126.395 118.882 131.816 128.242C131.821 128.242 131.836 128.237 131.847 128.289C131.867 128.325 131.886 128.361 131.904 128.398C131.915 128.423 131.925 128.447 131.936 128.471C131.943 128.489 131.95 128.506 131.956 128.524C131.987 128.59 132.015 128.658 132.04 128.727C132.047 128.744 132.054 128.762 132.061 128.779C132.081 128.843 132.098 128.907 132.113 128.972C132.135 129.057 132.152 129.142 132.165 129.228C132.172 129.278 132.177 129.329 132.181 129.379C132.185 129.414 132.188 129.449 132.191 129.484C132.191 129.503 132.191 129.522 132.191 129.541C132.192 129.628 132.189 129.715 132.181 129.802C132.177 129.872 132.17 129.941 132.16 130.011C132.157 130.028 132.153 130.045 132.149 130.063C132.133 130.149 132.112 130.234 132.087 130.318C132.064 130.396 132.038 130.473 132.009 130.548C131.983 130.615 131.956 130.681 131.925 130.746C131.892 130.817 131.855 130.887 131.816 130.955C131.812 130.955 131.809 130.955 131.805 130.955C131.795 130.972 131.784 130.99 131.774 131.007C131.734 131.064 131.693 131.12 131.649 131.174C131.64 131.191 131.631 131.209 131.622 131.226C131.576 131.28 131.527 131.333 131.476 131.383C131.434 131.426 131.391 131.468 131.346 131.508C131.329 131.529 131.311 131.55 131.294 131.571C131.28 131.588 131.266 131.605 131.252 131.623C131.2 131.665 131.146 131.705 131.09 131.743C131.077 131.76 131.063 131.778 131.049 131.795C130.989 131.837 130.928 131.877 130.866 131.915C130.79 131.961 130.712 132.002 130.631 132.04C130.592 132.058 130.552 132.076 130.511 132.092C130.473 132.111 130.435 132.128 130.396 132.144C130.379 132.145 130.362 132.145 130.344 132.144C130.277 132.163 130.209 132.178 130.141 132.191C130.081 132.211 130.02 132.228 129.958 132.244C129.918 132.244 129.878 132.244 129.838 132.244C129.767 132.246 129.695 132.246 129.624 132.244C129.61 132.244 129.596 132.244 129.582 132.244C129.407 132.244 129.232 132.226 129.061 132.191C128.978 132.175 128.896 132.154 128.815 132.129C128.731 132.103 128.647 132.074 128.565 132.04C128.466 131.997 128.371 131.949 128.278 131.894C128.215 131.842 128.174 131.831 128.116 131.79C118.808 126.39 110.487 121.391 103.177 116.539L97.7666 121.95C97.4027 122.316 96.9382 122.566 96.432 122.668C95.9258 122.77 95.4006 122.72 94.9231 122.523C94.1614 122.21 93.3892 121.798 92.6222 121.47C88.4274 124.219 86.9352 127.428 87.8639 132.896C88.8709 138.807 93.3057 147.223 101.648 157.981C102.001 158.438 102.193 158.998 102.193 159.575C102.193 160.152 102.002 160.713 101.65 161.17C101.297 161.627 100.803 161.954 100.245 162.1C99.6869 162.246 99.096 162.203 98.5649 161.978C81.17 154.548 67.3907 143.56 59.0846 131.701C51.1593 120.379 48.2689 107.983 52.7193 97.4642C38.6688 86.1059 26.1105 72.0658 17.1626 55.4274C16.7973 54.7909 16.5782 54.3735 16.1869 53.6848C15.3626 52.2552 14.6478 50.9143 14.053 49.6674C13.9657 49.5353 13.8906 49.3956 13.8286 49.25C13.8286 49.2448 13.8286 49.2291 13.8182 49.2239C13.7765 49.1195 13.6878 48.9891 13.646 48.8952C13.564 48.6995 13.5062 48.4945 13.4738 48.2848C8.26904 35.5873 5.61339 21.9898 5.65816 8.2671C5.65814 7.92364 5.72597 7.58356 5.85773 7.26638C5.98947 6.94919 6.18257 6.66114 6.42592 6.41877C6.66927 6.17639 6.95805 5.98445 7.27577 5.85396C7.59348 5.72348 7.93384 5.65702 8.2773 5.65839C8.28078 5.65838 8.28426 5.65838 8.28773 5.65839C8.30859 5.65814 8.32948 5.65814 8.35034 5.65839ZM11.1625 11.1732C11.4509 22.0256 13.522 32.7567 17.293 42.9369L42.7697 17.4706C32.656 13.6336 21.9745 11.5054 11.1625 11.1732ZM48.4358 19.6515L19.4374 48.7126C19.6669 49.1561 19.9435 49.6569 20.1991 50.1369C20.2026 50.1404 20.2061 50.1439 20.2095 50.1474C20.2991 50.2707 20.3777 50.4016 20.4443 50.5387C20.893 51.4152 21.3939 52.2604 21.8583 53.1265C22.3591 53.9978 22.933 54.9683 23.2774 55.6518C23.3276 55.7532 23.3712 55.8577 23.4078 55.9648C40.114 84.9111 68.6742 105.603 95.4083 116.936L98.8153 113.523C94.4431 110.456 90.3631 107.419 86.9874 104.372C77.1838 95.5494 71.6273 86.1633 72.8638 75.4623C72.8829 75.2706 72.9231 75.0817 72.9838 74.8988L73.036 74.7788C73.2346 74.2042 73.6277 73.7171 74.1473 73.4014L74.3508 73.2814C74.6701 73.0859 75.0278 72.9613 75.3995 72.9162V72.864C86.1057 71.6275 95.5022 77.1893 104.33 86.9876C107.382 90.3737 110.429 94.4538 113.502 98.8364L117.108 95.2311C105.786 68.544 85.1404 40.4325 56.2202 23.7681C56.1057 23.7272 55.9941 23.6784 55.8863 23.622C53.9559 22.6463 50.6741 20.8046 48.4358 19.6515ZM55.0307 42.1491C58.3385 42.1491 61.6568 43.4012 64.1611 45.9056C66.57 48.3314 67.921 51.6118 67.9191 55.0304C67.9171 58.449 66.5624 61.728 64.1507 64.151C61.7283 66.559 58.4515 67.9106 55.0359 67.9106C51.6202 67.9106 48.3434 66.559 45.921 64.151C43.511 61.7282 42.1572 58.4504 42.1553 55.033C42.1533 51.6157 43.5033 48.3364 45.9106 45.9108C47.1086 44.7151 48.531 43.7678 50.096 43.1231C51.6611 42.4785 53.338 42.1492 55.0307 42.1543V42.1491ZM55.0307 47.3352C53.0689 47.3352 51.1071 48.0865 49.5993 49.5996C48.8822 50.311 48.3133 51.1574 47.9253 52.0901C47.5374 53.0227 47.3382 54.023 47.3391 55.0331C47.3401 56.0432 47.5412 57.043 47.931 57.9749C48.3207 58.9068 48.8913 59.7522 49.6097 60.4622C50.3196 61.1797 51.1646 61.7492 52.096 62.1379C53.0274 62.5266 54.0266 62.7268 55.0359 62.7268C56.0451 62.7268 57.0443 62.5266 57.9757 62.1379C58.9071 61.7492 59.7522 61.1797 60.462 60.4622C61.1804 59.7522 61.751 58.9068 62.1408 57.9749C62.5305 57.043 62.7317 56.0432 62.7326 55.0331C62.7336 54.023 62.5344 53.0227 62.1464 52.0901C61.7585 51.1574 61.1895 50.311 60.4724 49.5996C58.9594 48.0865 56.9924 47.3352 55.0307 47.3352ZM109.741 55.9596C106.892 55.9857 104.221 56.7579 101.581 57.5874C102.431 58.7509 103.261 59.977 104.095 61.177L104.278 61.4483C106.313 64.3753 108.311 67.3962 110.231 70.5423C111.848 73.1562 113.325 75.7806 114.77 78.4258L115.532 79.8345C116.925 82.4443 118.249 85.0904 119.502 87.7702C120.838 86.2937 121.965 84.4833 123.702 83.6641C126.697 82.245 130.172 81.9424 133.902 82.6154C138.974 83.5285 144.995 86.7581 151.584 91.0311C144.984 79.3337 137.205 69.3162 128.706 63.3683C123.269 59.5596 117.822 57.1387 112.657 56.2048C111.666 56.0222 110.69 55.9439 109.741 55.9596ZM78.5299 78.5406C78.5978 86.1007 82.2343 93.0242 90.4778 100.449C97.8866 107.111 109.031 114.196 121.835 121.84C114.201 109.026 107.121 97.8712 100.459 90.4729C93.0239 82.2241 86.0952 78.6032 78.5299 78.5406ZM57.5768 101.539C55.0202 109.642 56.6115 119.07 63.3577 128.706C69.316 137.221 79.3595 145.011 91.0831 151.611C86.8048 144.974 83.5909 138.896 82.7195 133.767C81.7074 127.851 84.0865 123.087 88.0048 119.362C85.2313 118.07 82.4929 116.704 79.7926 115.266L79.396 115.052C76.9752 113.753 74.5543 112.496 72.149 111.056C67.1342 108.131 62.2705 104.955 57.5768 101.539ZM126.588 114.217L146.936 134.576L144.468 137.054L133.678 126.259C131.347 122.225 128.982 118.211 126.582 114.217H126.588ZM114.41 126.76C118.229 129.066 122.262 131.424 126.452 133.861L139.527 146.936L137.054 149.404L114.41 126.76ZM134.32 131.847L149.414 146.936L146.936 149.404L131.847 134.31C131.909 134.31 131.977 134.257 132.04 134.231C132.059 134.214 132.078 134.197 132.097 134.179L132.342 134.023L132.311 134.075C132.527 133.942 132.731 133.792 132.922 133.626C132.943 133.607 132.964 133.588 132.984 133.569C133.027 133.532 133.069 133.494 133.109 133.454C133.12 133.454 133.13 133.454 133.141 133.454C133.144 133.454 133.148 133.454 133.151 133.454C133.16 133.437 133.169 133.419 133.177 133.402C133.214 133.35 133.256 133.35 133.292 133.297C133.306 133.28 133.32 133.263 133.334 133.245C133.376 133.193 133.422 133.172 133.464 133.12C133.542 133.036 133.617 132.949 133.689 132.859C133.696 132.842 133.703 132.825 133.709 132.807C133.803 132.687 133.871 132.562 133.955 132.437C134.078 132.282 134.183 132.114 134.268 131.936C134.283 131.884 134.304 131.873 134.32 131.847ZM149.414 137.054L151.887 139.517L149.414 141.995L146.946 139.517L149.414 137.054ZM151.887 149.404L154.355 151.877L151.887 154.345L149.414 151.877L151.887 149.404ZM142.005 149.404L144.468 151.877L142.005 154.345L139.527 151.877L142.005 149.404Z" fill="#F8F9FA"/>
</svg>
